<mxfile host="app.diagrams.net" agent="Mozilla/5.0 (Windows NT 10.0; Win64; x64) AppleWebKit/537.36 (KHTML, like Gecko) Chrome/140.0.0.0 Safari/537.36" version="28.2.3">
  <diagram name="Trang-1" id="akgymqU7-k9vbCclX7LE">
    <mxGraphModel dx="1613" dy="459" grid="1" gridSize="10" guides="1" tooltips="1" connect="1" arrows="1" fold="1" page="1" pageScale="1" pageWidth="827" pageHeight="1169" math="0" shadow="0">
      <root>
        <mxCell id="0" />
        <mxCell id="1" parent="0" />
        <mxCell id="dKi6UFQKnnr0m944Ll1m-3" value="" style="edgeStyle=orthogonalEdgeStyle;rounded=0;orthogonalLoop=1;jettySize=auto;html=1;" edge="1" parent="1" source="dKi6UFQKnnr0m944Ll1m-1" target="dKi6UFQKnnr0m944Ll1m-2">
          <mxGeometry relative="1" as="geometry" />
        </mxCell>
        <mxCell id="dKi6UFQKnnr0m944Ll1m-1" value="Bắt đầu" style="ellipse;whiteSpace=wrap;html=1;" vertex="1" parent="1">
          <mxGeometry x="100" width="120" height="80" as="geometry" />
        </mxCell>
        <mxCell id="dKi6UFQKnnr0m944Ll1m-5" value="" style="edgeStyle=orthogonalEdgeStyle;rounded=0;orthogonalLoop=1;jettySize=auto;html=1;" edge="1" parent="1" source="dKi6UFQKnnr0m944Ll1m-2">
          <mxGeometry relative="1" as="geometry">
            <mxPoint x="160" y="210" as="targetPoint" />
          </mxGeometry>
        </mxCell>
        <mxCell id="dKi6UFQKnnr0m944Ll1m-2" value="Đút thẻ" style="shape=parallelogram;perimeter=parallelogramPerimeter;whiteSpace=wrap;html=1;fixedSize=1;" vertex="1" parent="1">
          <mxGeometry x="100" y="120" width="120" height="60" as="geometry" />
        </mxCell>
        <mxCell id="dKi6UFQKnnr0m944Ll1m-8" value="" style="edgeStyle=orthogonalEdgeStyle;rounded=0;orthogonalLoop=1;jettySize=auto;html=1;" edge="1" parent="1" source="dKi6UFQKnnr0m944Ll1m-6" target="dKi6UFQKnnr0m944Ll1m-7">
          <mxGeometry relative="1" as="geometry" />
        </mxCell>
        <mxCell id="dKi6UFQKnnr0m944Ll1m-61" style="edgeStyle=orthogonalEdgeStyle;shape=wire;rounded=0;orthogonalLoop=1;jettySize=auto;html=1;dashed=1;" edge="1" parent="1" source="dKi6UFQKnnr0m944Ll1m-6">
          <mxGeometry relative="1" as="geometry">
            <mxPoint x="380" y="240" as="targetPoint" />
          </mxGeometry>
        </mxCell>
        <mxCell id="dKi6UFQKnnr0m944Ll1m-62" value="Text" style="edgeLabel;html=1;align=center;verticalAlign=middle;resizable=0;points=[];dashed=1;rotation=90;" vertex="1" connectable="0" parent="dKi6UFQKnnr0m944Ll1m-61">
          <mxGeometry x="1" y="3" relative="1" as="geometry">
            <mxPoint x="-4" y="3" as="offset" />
          </mxGeometry>
        </mxCell>
        <mxCell id="dKi6UFQKnnr0m944Ll1m-6" value="Nhập mk" style="shape=parallelogram;perimeter=parallelogramPerimeter;whiteSpace=wrap;html=1;fixedSize=1;" vertex="1" parent="1">
          <mxGeometry x="100" y="210" width="120" height="60" as="geometry" />
        </mxCell>
        <mxCell id="dKi6UFQKnnr0m944Ll1m-11" value="" style="edgeStyle=orthogonalEdgeStyle;rounded=0;orthogonalLoop=1;jettySize=auto;html=1;" edge="1" parent="1" source="dKi6UFQKnnr0m944Ll1m-7" target="dKi6UFQKnnr0m944Ll1m-10">
          <mxGeometry relative="1" as="geometry" />
        </mxCell>
        <mxCell id="dKi6UFQKnnr0m944Ll1m-58" style="edgeStyle=orthogonalEdgeStyle;shape=wire;rounded=0;orthogonalLoop=1;jettySize=auto;html=1;exitX=0;exitY=0.25;exitDx=0;exitDy=0;dashed=1;" edge="1" parent="1" source="dKi6UFQKnnr0m944Ll1m-7">
          <mxGeometry relative="1" as="geometry">
            <mxPoint x="40" y="328" as="targetPoint" />
          </mxGeometry>
        </mxCell>
        <mxCell id="dKi6UFQKnnr0m944Ll1m-7" value="nhập số tiền" style="shape=parallelogram;perimeter=parallelogramPerimeter;whiteSpace=wrap;html=1;fixedSize=1;" vertex="1" parent="1">
          <mxGeometry x="100" y="310" width="120" height="60" as="geometry" />
        </mxCell>
        <mxCell id="dKi6UFQKnnr0m944Ll1m-38" style="edgeStyle=orthogonalEdgeStyle;rounded=0;orthogonalLoop=1;jettySize=auto;html=1;entryX=0.5;entryY=0;entryDx=0;entryDy=0;" edge="1" parent="1" source="dKi6UFQKnnr0m944Ll1m-10" target="dKi6UFQKnnr0m944Ll1m-29">
          <mxGeometry relative="1" as="geometry" />
        </mxCell>
        <mxCell id="dKi6UFQKnnr0m944Ll1m-10" value="Kiểm tra mk" style="rhombus;whiteSpace=wrap;html=1;" vertex="1" parent="1">
          <mxGeometry x="120" y="440" width="80" height="80" as="geometry" />
        </mxCell>
        <mxCell id="dKi6UFQKnnr0m944Ll1m-60" style="edgeStyle=orthogonalEdgeStyle;shape=wire;rounded=0;orthogonalLoop=1;jettySize=auto;html=1;dashed=1;" edge="1" parent="1" source="dKi6UFQKnnr0m944Ll1m-18">
          <mxGeometry relative="1" as="geometry">
            <mxPoint x="380" y="230" as="targetPoint" />
            <Array as="points">
              <mxPoint x="380" y="275" />
              <mxPoint x="381" y="275" />
            </Array>
          </mxGeometry>
        </mxCell>
        <mxCell id="dKi6UFQKnnr0m944Ll1m-18" value="Thông tin sai mk" style="whiteSpace=wrap;html=1;" vertex="1" parent="1">
          <mxGeometry x="320" y="320" width="120" height="60" as="geometry" />
        </mxCell>
        <mxCell id="dKi6UFQKnnr0m944Ll1m-40" style="edgeStyle=orthogonalEdgeStyle;shape=wire;rounded=0;orthogonalLoop=1;jettySize=auto;html=1;dashed=1;" edge="1" parent="1" source="dKi6UFQKnnr0m944Ll1m-26">
          <mxGeometry relative="1" as="geometry">
            <mxPoint x="390" y="390" as="targetPoint" />
          </mxGeometry>
        </mxCell>
        <mxCell id="dKi6UFQKnnr0m944Ll1m-26" value="Sai" style="text;html=1;align=center;verticalAlign=middle;resizable=0;points=[];autosize=1;strokeColor=none;fillColor=none;" vertex="1" parent="1">
          <mxGeometry x="280" y="465" width="40" height="30" as="geometry" />
        </mxCell>
        <mxCell id="dKi6UFQKnnr0m944Ll1m-28" value="\" style="endArrow=classic;html=1;rounded=0;" edge="1" parent="1">
          <mxGeometry width="50" height="50" relative="1" as="geometry">
            <mxPoint x="430" y="560" as="sourcePoint" />
            <mxPoint x="430" y="550" as="targetPoint" />
          </mxGeometry>
        </mxCell>
        <mxCell id="dKi6UFQKnnr0m944Ll1m-41" style="edgeStyle=orthogonalEdgeStyle;shape=wire;rounded=0;orthogonalLoop=1;jettySize=auto;html=1;dashed=1;" edge="1" parent="1" source="dKi6UFQKnnr0m944Ll1m-29">
          <mxGeometry relative="1" as="geometry">
            <mxPoint x="160" y="720" as="targetPoint" />
          </mxGeometry>
        </mxCell>
        <mxCell id="dKi6UFQKnnr0m944Ll1m-48" style="edgeStyle=orthogonalEdgeStyle;shape=wire;rounded=0;orthogonalLoop=1;jettySize=auto;html=1;dashed=1;" edge="1" parent="1" source="dKi6UFQKnnr0m944Ll1m-29">
          <mxGeometry relative="1" as="geometry">
            <mxPoint x="90" y="640" as="targetPoint" />
          </mxGeometry>
        </mxCell>
        <mxCell id="dKi6UFQKnnr0m944Ll1m-29" value="Kiểm tra số dư" style="rhombus;whiteSpace=wrap;html=1;" vertex="1" parent="1">
          <mxGeometry x="120" y="600" width="80" height="80" as="geometry" />
        </mxCell>
        <mxCell id="dKi6UFQKnnr0m944Ll1m-39" style="edgeStyle=orthogonalEdgeStyle;shape=wire;rounded=0;orthogonalLoop=1;jettySize=auto;html=1;dashed=1;" edge="1" parent="1" source="dKi6UFQKnnr0m944Ll1m-10" target="dKi6UFQKnnr0m944Ll1m-26">
          <mxGeometry relative="1" as="geometry">
            <mxPoint x="260" y="480" as="targetPoint" />
            <Array as="points" />
          </mxGeometry>
        </mxCell>
        <mxCell id="dKi6UFQKnnr0m944Ll1m-45" value="" style="edgeStyle=orthogonalEdgeStyle;shape=wire;rounded=0;orthogonalLoop=1;jettySize=auto;html=1;dashed=1;" edge="1" parent="1" source="dKi6UFQKnnr0m944Ll1m-42" target="dKi6UFQKnnr0m944Ll1m-44">
          <mxGeometry relative="1" as="geometry" />
        </mxCell>
        <mxCell id="dKi6UFQKnnr0m944Ll1m-42" value="Đúng" style="text;html=1;align=center;verticalAlign=middle;resizable=0;points=[];autosize=1;strokeColor=none;fillColor=none;" vertex="1" parent="1">
          <mxGeometry x="135" y="720" width="50" height="30" as="geometry" />
        </mxCell>
        <mxCell id="dKi6UFQKnnr0m944Ll1m-47" value="" style="edgeStyle=orthogonalEdgeStyle;shape=wire;rounded=0;orthogonalLoop=1;jettySize=auto;html=1;dashed=1;" edge="1" parent="1" source="dKi6UFQKnnr0m944Ll1m-44" target="dKi6UFQKnnr0m944Ll1m-46">
          <mxGeometry relative="1" as="geometry" />
        </mxCell>
        <mxCell id="dKi6UFQKnnr0m944Ll1m-44" value="xuất lên" style="shape=parallelogram;perimeter=parallelogramPerimeter;whiteSpace=wrap;html=1;fixedSize=1;dashed=1;" vertex="1" parent="1">
          <mxGeometry x="100" y="815" width="120" height="60" as="geometry" />
        </mxCell>
        <mxCell id="dKi6UFQKnnr0m944Ll1m-46" value="kết thúc" style="ellipse;whiteSpace=wrap;html=1;dashed=1;" vertex="1" parent="1">
          <mxGeometry x="120" y="945" width="80" height="55" as="geometry" />
        </mxCell>
        <mxCell id="dKi6UFQKnnr0m944Ll1m-50" style="edgeStyle=orthogonalEdgeStyle;shape=wire;rounded=0;orthogonalLoop=1;jettySize=auto;html=1;dashed=1;" edge="1" parent="1" source="dKi6UFQKnnr0m944Ll1m-49">
          <mxGeometry relative="1" as="geometry">
            <mxPoint x="40" y="570" as="targetPoint" />
          </mxGeometry>
        </mxCell>
        <mxCell id="dKi6UFQKnnr0m944Ll1m-49" value="sai" style="text;html=1;align=center;verticalAlign=middle;resizable=0;points=[];autosize=1;strokeColor=none;fillColor=none;" vertex="1" parent="1">
          <mxGeometry x="60" y="625" width="40" height="30" as="geometry" />
        </mxCell>
        <mxCell id="dKi6UFQKnnr0m944Ll1m-57" style="edgeStyle=orthogonalEdgeStyle;shape=wire;rounded=0;orthogonalLoop=1;jettySize=auto;html=1;dashed=1;" edge="1" parent="1">
          <mxGeometry relative="1" as="geometry">
            <mxPoint x="40" y="325" as="targetPoint" />
            <mxPoint x="10" y="520" as="sourcePoint" />
          </mxGeometry>
        </mxCell>
        <mxCell id="dKi6UFQKnnr0m944Ll1m-51" value="Thông tin báo sô dư hợp lệ" style="whiteSpace=wrap;html=1;dashed=1;" vertex="1" parent="1">
          <mxGeometry x="-20" y="515" width="120" height="70" as="geometry" />
        </mxCell>
      </root>
    </mxGraphModel>
  </diagram>
</mxfile>
